<svg id="Layer_1" data-name="Layer 1" xmlns="http://www.w3.org/2000/svg" xmlns:xlink="http://www.w3.org/1999/xlink" viewBox="0 0 1600 900"><defs><style>.cls-1,.cls-7{fill:none;}.cls-2{fill:#dedfd6;}.cls-3{fill:#949292;}.cls-4{fill:#79c25a;}.cls-10,.cls-5{fill:#374750;}.cls-6{fill:#616261;}.cls-7{stroke:#c4ce96;stroke-miterlimit:10;stroke-width:5px;}.cls-8{fill:#fff;}.cls-9{fill:#c4ce96;}.cls-10{opacity:0.15;}.cls-11{opacity:0.48;fill:url(#linear-gradient);}.cls-12{clip-path:url(#clip-path);}</style><linearGradient id="linear-gradient" x1="-915.21" y1="-600.39" x2="-915.21" y2="-42.48" gradientTransform="translate(-116.06 103.94) rotate(180)" gradientUnits="userSpaceOnUse"><stop offset="0" stop-color="#fff" stop-opacity="0"/><stop offset="0.27" stop-color="#fff" stop-opacity="0.01"/><stop offset="0.41" stop-color="#fefffe" stop-opacity="0.04"/><stop offset="0.52" stop-color="#fefefd" stop-opacity="0.09"/><stop offset="0.61" stop-color="#fdfefb" stop-opacity="0.17"/><stop offset="0.7" stop-color="#fcfdf9" stop-opacity="0.27"/><stop offset="0.77" stop-color="#fafcf6" stop-opacity="0.39"/><stop offset="0.84" stop-color="#f8fbf3" stop-opacity="0.53"/><stop offset="0.91" stop-color="#f6faf0" stop-opacity="0.7"/><stop offset="0.97" stop-color="#f3f9eb" stop-opacity="0.89"/><stop offset="1" stop-color="#f2f8e9"/></linearGradient><clipPath id="clip-path"><rect class="cls-1" x="-6" y="-2.37" width="1606" height="903.37"/></clipPath></defs><title>GD-codeitpossible-illustrations</title><rect class="cls-2" x="-6" y="-2.37" width="1606" height="906.69"/><rect class="cls-3" x="374.42" y="660.22" width="845.17" height="240.79"/><path class="cls-4" d="M682,542.51a19.62,19.62,0,0,0,19.52,19.6l19.56,0L721,630.62a29.34,29.34,0,0,0,58.69.12l.14-68.47,39.12.08-.14,68.47a29.34,29.34,0,1,0,58.69.12l.14-68.47,19.56,0A19.62,19.62,0,0,0,916.78,543l.39-195.62-234.74-.46Z"/><path class="cls-4" d="M948.33,399a29.3,29.3,0,0,0,41-6.6l80.19-111A29.34,29.34,0,0,0,1021.92,247L941.73,358A29.3,29.3,0,0,0,948.33,399Z"/><path class="cls-4" d="M633.52,346.8a29.3,29.3,0,0,0-29.4,29.28L603.84,513a29.34,29.34,0,1,0,58.69.12l.27-136.93A29.3,29.3,0,0,0,633.52,346.8Z"/><path class="cls-4" d="M682.46,327.33l234.74.47A116.7,116.7,0,0,0,869.07,233l25.48-25.38a9.82,9.82,0,1,0-13.86-13.91l-29,28.89a114.22,114.22,0,0,0-51.62-12.43A115.88,115.88,0,0,0,748,222.41l-29.09-29A9.82,9.82,0,0,0,705,207.26l25.58,25.68A117,117,0,0,0,682.46,327.33Zm167.09-58.18a9.45,9.45,0,1,1-9.45,9.45A9.45,9.45,0,0,1,849.55,269.15Zm-99.9,0a9.45,9.45,0,1,1-9.45,9.45A9.45,9.45,0,0,1,749.65,269.15Z"/><path class="cls-5" d="M730.58,232.94,748,222.41a115.88,115.88,0,0,1,52.06-12.22,114.26,114.26,0,0,1,26.47,3.16c-12.51-25-39.15-42.19-70-42.19-42.85,0-77.59,33.25-77.59,74.27a71.59,71.59,0,0,0,11.66,39.16A118,118,0,0,1,730.58,232.94Z"/><polygon class="cls-5" points="716.92 211.72 690.62 284.59 826.54 213.35 793.32 196.52 716.92 211.72"/><polygon class="cls-6" points="828.55 168.91 647.11 263.3 648.49 189.4 767.24 127.62 828.55 168.91"/><polyline class="cls-7" points="717.54 187.04 644.94 221.47 644.21 299.59"/><rect class="cls-5" x="716.94" y="180.02" width="12.91" height="8.61" rx="1.45" ry="1.45" transform="translate(-10.59 320.49) rotate(-24.8)"/><polygon class="cls-8" points="1021.26 146.11 999.84 157.88 979.03 170.72 1032.64 242.16 1068.38 324.02 1089.8 312.25 1110.61 299.42 1057 227.97 1021.26 146.11"/><rect class="cls-9" x="1028.09" y="221.29" width="31.02" height="24.3" transform="translate(24.4 557.2) rotate(-30.23)"/><polygon class="cls-10" points="979.16 170.71 1024.2 230.82 1023.87 231.01 1036 251.82 1036.74 251.39 1068.48 323.91 1089.8 312.25 999.84 157.89 979.16 170.71"/><polygon class="cls-11" points="1005.65 -7.92 1221.76 664 376.54 664 593.23 -7.71 1005.65 -7.92"/><g class="cls-12"><circle class="cls-6" cx="23.46" cy="762.19" r="70.5" transform="translate(-738.77 784.14) rotate(-89.89)"/><path class="cls-6" d="M23.28,853.94A130.87,130.87,0,0,0-99.41,938.75l245,.49A130.87,130.87,0,0,0,23.28,853.94Z"/><circle class="cls-6" cx="280.42" cy="762.19" r="70.5" transform="translate(-482.32 1041.1) rotate(-89.89)"/><path class="cls-6" d="M280.24,853.94a130.87,130.87,0,0,0-122.69,84.82l245,.49A130.87,130.87,0,0,0,280.24,853.94Z"/><circle class="cls-6" cx="537.38" cy="762.19" r="70.5" transform="translate(-225.87 1298.06) rotate(-89.89)"/><path class="cls-6" d="M537.2,853.94a130.87,130.87,0,0,0-122.69,84.82l245,.49A130.87,130.87,0,0,0,537.2,853.94Z"/><circle class="cls-6" cx="794.34" cy="762.19" r="70.5" transform="translate(30.58 1555.02) rotate(-89.89)"/><path class="cls-6" d="M794.16,853.94a130.87,130.87,0,0,0-122.69,84.82l245,.49A130.87,130.87,0,0,0,794.16,853.94Z"/><circle class="cls-6" cx="1051.3" cy="762.19" r="70.5" transform="translate(287.03 1811.97) rotate(-89.89)"/><path class="cls-6" d="M1051.12,853.94a130.87,130.87,0,0,0-122.69,84.82l245,.49A130.87,130.87,0,0,0,1051.12,853.94Z"/><circle class="cls-6" cx="1308.26" cy="762.19" r="70.5" transform="translate(543.48 2068.93) rotate(-89.89)"/><path class="cls-6" d="M1308.08,853.94a130.87,130.87,0,0,0-122.69,84.82l245,.49A130.87,130.87,0,0,0,1308.08,853.94Z"/><circle class="cls-6" cx="1565.22" cy="762.19" r="70.5" transform="translate(799.93 2325.89) rotate(-89.89)"/><path class="cls-6" d="M1565,853.94a130.87,130.87,0,0,0-122.69,84.82l245,.49A130.87,130.87,0,0,0,1565,853.94Z"/></g></svg>